<svg width="100" height="100" viewBox="0 0 1000 1000" fill="none" xmlns="http://www.w3.org/2000/svg">
    <title>Navarch App Logo Sprite</title>
    <fill="#ffffff"/>
    <g id="Navarch-App-Logo-Sprite" stroke="none" stroke-width="1" fill="none" fill-rule="evenodd">
    <g id="1" fill="#FFFFFF">
        <path id="Staff" d="M490 658L497 225L509.5 658H490Z"/>
        <path id="Sail" d="M633.122 338C501.301 482.893 273.448 512.409 176 509.055C325.683 674.51 527.021 632.686 636.931 568.598C636.931 568.598 661.692 553.483 699.785 529.067C663.216 469.538 632.106 375.722 633.122 338Z"/>
        <path id="Body" d="M92 494C92 684 154.886 712.162 232.5 736.5C379.233 782.512 614.92 804.379 908 697.596C896.287 706.774 786.447 663.662 759.546 529.592C628.029 654.875 493.43 663.722 388.41 663.035C229.592 661.997 131.127 579.705 92 494Z"/>
    </g>
</svg>