<svg width="32" height="32" viewBox="0 0 32 32" fill="none" xmlns="http://www.w3.org/2000/svg">
<rect width="32" height="32" fill="#E5E5E5"/>
<g id="navarch-logo">
<rect width="32" height="32" fill="white"/>
<path id="Staff" d="M16 22L16.359 6L17 22H16Z"/>
<path id="Sail" d="M20.5818 10C15.8001 15.0479 7.53488 16.0762 4 15.9594C9.42967 21.7237 16.7331 20.2666 20.72 18.0338C20.72 18.0338 21.6182 17.5072 23 16.6566C21.6735 14.5826 20.545 11.3142 20.5818 10Z"/>
<path id="Body" d="M1 16C1 22.773 3.31198 23.7769 6.16544 24.6445C11.56 26.2847 20.225 27.0642 31 23.2576C30.5694 23.5848 26.5311 22.048 25.5421 17.2688C20.707 21.7348 15.7585 22.0501 11.8974 22.0256C6.05854 21.9886 2.4385 19.0551 1 16Z"/>
</g>
</svg>
